<svg width="44" height="54" viewBox="0 0 44 54" fill="none" xmlns="http://www.w3.org/2000/svg">
<path fill-rule="evenodd" clip-rule="evenodd" d="M22.9236 23.1453L21.5861 23.1594C21.2283 23.1641 20.8876 23.3125 20.6408 23.5719C20.3923 23.8313 20.2611 24.1797 20.2751 24.5375L20.5361 31.1515C20.5611 31.864 21.147 32.4281 21.8611 32.4265H21.8704L22.622 32.4203C23.3251 32.4156 23.9017 31.8609 23.9361 31.1594L24.2611 24.5374L24.2626 24.5358C24.2798 24.1717 24.147 23.8155 23.8939 23.5514C23.6408 23.2889 23.2892 23.1422 22.9236 23.1453ZM22.8033 31.1033H22.8048C22.7986 31.2049 22.7158 31.2846 22.6142 31.2846L21.8627 31.2893V31.2908C21.7595 31.2908 21.6752 31.2096 21.672 31.1065L21.4127 24.4925C21.4064 24.4409 21.4267 24.3893 21.4642 24.355C21.4986 24.3143 21.5486 24.2925 21.6017 24.294L22.9392 24.28H22.9424H22.9408C22.9939 24.2768 23.0439 24.2987 23.0767 24.3393C23.1158 24.3753 23.1361 24.4268 23.1314 24.48L22.8064 31.102L22.8033 31.1033ZM22.272 33.0783H22.2736C21.4955 33.094 20.8017 33.5737 20.5142 34.2971C20.2267 35.0206 20.4017 35.8455 20.9564 36.3909C21.5127 36.9362 22.3408 37.094 23.058 36.794C23.7768 36.4924 24.2439 35.7909 24.2439 35.0128C24.2314 33.9346 23.3502 33.0705 22.2736 33.0799L22.272 33.0783ZM22.272 35.8096H22.2736C21.9533 35.7955 21.672 35.5908 21.5595 35.2908C21.447 34.9908 21.5236 34.6533 21.7564 34.4315C21.9876 34.2096 22.3298 34.1487 22.6236 34.2752C22.9189 34.4018 23.1095 34.6909 23.108 35.0127C23.0986 35.4643 22.7251 35.8221 22.2736 35.8127L22.272 35.8096ZM7.65644 14.4408C7.53769 14.3377 7.46738 14.1892 7.46113 14.033C7.45488 13.8752 7.51582 13.7221 7.62675 13.6111C7.73769 13.5002 7.89082 13.4408 8.04863 13.4455C8.20488 13.4517 8.35332 13.522 8.45643 13.6408L12.9892 18.1736C13.1064 18.2783 13.1752 18.4252 13.1799 18.5814C13.1845 18.7376 13.1252 18.8892 13.0142 18.9986C12.9049 19.1095 12.7533 19.1705 12.597 19.1658C12.4408 19.1611 12.2939 19.0939 12.1892 18.9767L7.65643 14.4439L7.65644 14.4408ZM21.5156 14.7236V8.5672C21.5156 8.2547 21.7703 8 22.0828 8C22.3969 8 22.65 8.25469 22.65 8.5672V14.7252C22.65 15.0377 22.3969 15.2924 22.0828 15.2924C21.7703 15.2924 21.5156 15.0377 21.5156 14.7252V14.7236ZM30.7468 19.0596C30.5265 18.8377 30.5265 18.4783 30.7468 18.2564L35.4952 13.5096C35.7171 13.2971 36.0702 13.3003 36.2874 13.519C36.5062 13.7378 36.5109 14.0893 36.2968 14.3128L31.55 19.0596C31.4438 19.1658 31.3 19.2252 31.1485 19.2252C30.9985 19.2252 30.8546 19.1658 30.7468 19.0596ZM14.8484 22.6908L14.85 22.6924C14.9406 22.0392 15.5 21.5517 16.1594 21.5517L28.3438 21.3673C29.0188 21.3517 29.5984 21.8439 29.6938 22.5127L32.1578 38.7267L12.3826 38.7251L14.8483 22.6939L14.8484 22.6908ZM9.16404 42.9644V41.4019C9.16404 40.5504 9.85468 39.8597 10.7062 39.8597H33.8326C34.6842 39.8597 35.3748 40.5504 35.3748 41.4019V42.9644C35.3748 42.9894 35.3748 43.0128 35.3717 43.0363H9.16531C9.16531 43.0113 9.16219 42.9878 9.16219 42.9644H9.16404ZM37.0436 46.9144H6.95604V44.6472C6.95604 44.5206 7.00604 44.3988 7.09666 44.3097C7.18573 44.2191 7.3076 44.1691 7.43416 44.1691H36.5654C36.6919 44.1691 36.8138 44.2191 36.9029 44.3097C36.9919 44.3988 37.0419 44.5206 37.0419 44.6472L37.0436 46.9144Z" fill="#9F0712"/>
</svg>
