<svg width="45" height="54" viewBox="0 0 45 54" fill="none" xmlns="http://www.w3.org/2000/svg">
<path d="M38.1408 37.11L24.5328 14.7492C23.6 13.2164 21.4 13.2164 20.4672 14.7492L6.8592 37.11C5.87796 38.7225 7.02327 40.7991 8.892 40.7991H36.1092C37.978 40.7991 39.1233 38.7225 38.142 37.11H38.1408ZM22.5 20.0412C23.4812 20.0412 24.2547 20.8771 24.1781 21.8568L23.5125 30.302C23.4719 30.8224 23.0375 31.2239 22.5156 31.2239H22.4828C21.9609 31.2239 21.5265 30.8224 21.4859 30.302L20.8203 21.8568C20.7437 20.8787 21.5171 20.0412 22.4984 20.0412H22.5ZM22.5 36.9772C21.4312 36.9772 20.5641 36.11 20.5641 35.0413C20.5641 33.9726 21.4313 33.1054 22.5 33.1054C23.5687 33.1054 24.4359 33.9726 24.4359 35.0413C24.4359 36.11 23.5687 36.9772 22.5 36.9772Z" fill="#FF8B43"/>
</svg>
