<svg width="44" height="55" viewBox="0 0 44 55" fill="none" xmlns="http://www.w3.org/2000/svg">
<path d="M22.06 13C19.2792 13 16.5608 13.8246 14.2487 15.3695C11.9365 16.9145 10.1344 19.1103 9.07026 21.6795C8.00609 24.2486 7.72766 27.0756 8.27017 29.803C8.81267 32.5303 10.1518 35.0356 12.1181 37.0019C14.0844 38.9682 16.5897 40.3073 19.317 40.8498C22.0444 41.3923 24.8714 41.1139 27.4405 40.0497C30.0097 38.9856 32.2055 37.1835 33.7505 34.8713C35.2954 32.5592 36.12 29.8408 36.12 27.06C36.12 23.3311 34.6387 19.7548 32.0019 17.1181C29.3652 14.4813 25.7889 13 22.06 13ZM22.06 34.9687C21.7124 34.9687 21.3726 34.8657 21.0836 34.6725C20.7946 34.4794 20.5693 34.2049 20.4363 33.8838C20.3033 33.5627 20.2685 33.2093 20.3363 32.8684C20.4041 32.5274 20.5715 32.2143 20.8173 31.9685C21.0631 31.7227 21.3762 31.5553 21.7171 31.4875C22.0581 31.4197 22.4114 31.4545 22.7326 31.5875C23.0537 31.7205 23.3282 31.9458 23.5213 32.2348C23.7144 32.5238 23.8175 32.8636 23.8175 33.2112C23.8175 33.6774 23.6323 34.1244 23.3027 34.454C22.9731 34.7836 22.5261 34.9687 22.06 34.9687ZM23.8175 27.06C23.8175 28.0306 23.0306 28.8175 22.06 28.8175V28.8175C21.0894 28.8175 20.3025 28.0306 20.3025 27.06V20.9087C20.3025 19.9381 21.0894 19.1512 22.06 19.1512V19.1512C23.0306 19.1512 23.8175 19.9381 23.8175 20.9087V27.06Z" fill="#007AFF"/>
</svg>
